<svg width="32" height="44" viewBox="0 0 32 44" xmlns="http://www.w3.org/2000/svg"><title>spray-bottle-white</title><g stroke="#FFF" stroke-width="1.774" fill="none" fill-rule="evenodd" stroke-linejoin="round"><path d="M19.444 23.772l.016.023a5.601 5.601 0 0 1 1.284 3.566v9.79c0 3.09-2.53 5.628-5.627 5.628H6.641c-3.097 0-5.628-2.538-5.628-5.627V27.36a5.59 5.59 0 0 1 1.332-3.628" stroke-linecap="round"/><path stroke-linecap="round" d="M19.457 23.793l-7.338-12.192-2.635-.004L2.33 23.763M26.278 7.528h4.658m-6.321 5.432l1.801 1.7M24.615 2.434l1.477-1.42"/><path stroke-linecap="square" d="M20.142 6.482L4.78 6.485l4.705 5.112 2.633.005 8.024-3.344z"/></g></svg>