<svg width="41" height="41" viewBox="0 0 41 41" xmlns="http://www.w3.org/2000/svg" xmlns:xlink="http://www.w3.org/1999/xlink"><title>spray-white</title><defs><path id="a" d="M.003 6h4.959V.901H.003V6z"/></defs><g fill="none" fill-rule="evenodd"><path d="M24 20.5a3.5 3.5 0 1 1-7 0 3.5 3.5 0 0 1 7 0m11.331 13.702a2.502 2.502 0 0 1-3.534.13 2.501 2.501 0 0 1 3.405-3.664 2.5 2.5 0 0 1 .129 3.534m-26-24a2.502 2.502 0 0 1-3.534.13 2.501 2.501 0 0 1 3.405-3.664 2.5 2.5 0 0 1 .129 3.534m31.667 9.207a2.5 2.5 0 1 1-4.996.182 2.5 2.5 0 0 1 4.996-.182m-36 2a2.5 2.5 0 1 1-4.996.182 2.5 2.5 0 0 1 4.996-.182m1.8 13.922a2.502 2.502 0 0 1-.13-3.534 2.501 2.501 0 0 1 3.664 3.405 2.5 2.5 0 0 1-3.534.129m24-26a2.502 2.502 0 0 1-.13-3.534 2.501 2.501 0 0 1 3.664 3.405 2.5 2.5 0 0 1-3.534.129" fill="#FFF"/><g transform="translate(19 35)"><mask id="b" fill="#fff"><use xlink:href="#a"/></mask><path d="M2.573 5.998C1.204 6.05.055 4.951.005 3.543-.044 2.137 1.025.953 2.392.903 3.761.852 4.91 1.951 4.96 3.357c.049 1.408-1.019 2.59-2.387 2.641" fill="#FFF" mask="url(#b)"/></g><path d="M19.591 4.998A2.5 2.5 0 1 1 19.41.002a2.5 2.5 0 0 1 .182 4.996" fill="#FFF"/></g></svg>