<svg width="38" height="25" viewBox="0 0 38 25" xmlns="http://www.w3.org/2000/svg"><title>waves</title><path d="M.66 3.185c4.634 5.17 9.09 0 9.09 0m0 0s4.567-5.17 9.199 0c4.633 5.17 9.09 0 9.09 0m.001 0s4.567-5.17 9.199 0M.66 12.5c4.634 5.17 9.09 0 9.09 0m0 0s4.567-5.17 9.199 0c4.633 5.17 9.09 0 9.09 0m.001 0s4.567-5.17 9.199 0M.66 21.816c4.634 5.17 9.09 0 9.09 0m0 0s4.567-5.17 9.199 0c4.633 5.17 9.09 0 9.09 0m.001 0s4.567-5.17 9.199 0" stroke="#3D77EA" stroke-width="1.774" fill="none" stroke-linejoin="round"/></svg>